<svg width="1200" height="300"
viewBox="0 0 1200 300"
xmlns="http://www.w3.org/2000/svg">

<defs>

<filter id="glow">
<feGaussianBlur stdDeviation="3" result="blur"/>
<feMerge>
<feMergeNode in="blur"/>
<feMergeNode in="SourceGraphic"/>
</feMerge>
</filter>

<linearGradient id="line">
<stop offset="0%" stop-color="#ff2020" stop-opacity="0"/>
<stop offset="50%" stop-color="#ff2020"/>
<stop offset="100%" stop-color="#ff2020" stop-opacity="0"/>
</linearGradient>

</defs>

<!-- TITULO -->

<rect
x="405"
y="20"
width="390"
height="60"
rx="12"
fill="#000000"
fill-opacity=".10"
stroke="#ff2020"
stroke-width="2"/>

<text
x="600"
y="59"
text-anchor="middle"
font-family="Arial"
font-size="24"
font-weight="700"
letter-spacing="8"
fill="#ffffff">

TECH STACK

</text>

<!-- LINHAS -->

<rect x="100" y="50" width="270" height="1" fill="url(#line)"/>
<rect x="830" y="50" width="270" height="1" fill="url(#line)"/>

<!-- CARDS -->

<g font-family="Arial" text-anchor="middle">

<!-- HTML -->

<g transform="translate(60 105)">
<rect width="105" height="130" rx="15"
fill="#000" fill-opacity=".12"
stroke="#ff2020"/>

<text x="52" y="68"
font-size="39"
font-weight="900"
fill="#ff5a30">HTML</text>

<text x="52" y="108"
font-size="13"
fill="#ffffff">HTML</text>
</g>

<!-- CSS -->

<g transform="translate(185 105)">
<rect width="105" height="130" rx="15"
fill="#000" fill-opacity=".12"
stroke="#ff2020"/>

<text x="52" y="68"
font-size="39"
font-weight="900"
fill="#3d8fff">CSS</text>

<text x="52" y="108"
font-size="13"
fill="#ffffff">CSS</text>
</g>

<!-- JS -->

<g transform="translate(310 105)">
<rect width="105" height="130" rx="15"
fill="#000" fill-opacity=".12"
stroke="#ff2020"/>

<text x="52" y="68"
font-size="39"
font-weight="900"
fill="#ffd800">JS</text>

<text x="52" y="108"
font-size="13"
fill="#ffffff">JavaScript</text>
</g>

<!-- PYTHON -->

<g transform="translate(435 105)">
<rect width="105" height="130" rx="15"
fill="#000" fill-opacity=".12"
stroke="#ff2020"/>

<text x="52" y="68"
font-size="34"
font-weight="900"
fill="#4ea3e3">PY</text>

<text x="52" y="108"
font-size="13"
fill="#ffffff">Python</text>
</g>

<!-- NODE -->

<g transform="translate(560 105)">
<rect width="105" height="130" rx="15"
fill="#000" fill-opacity=".12"
stroke="#ff2020"/>

<text x="52" y="68"
font-size="33"
font-weight="900"
fill="#5daf45">NODE</text>

<text x="52" y="108"
font-size="13"
fill="#ffffff">Node.js</text>
</g>

<!-- REACT -->

<g transform="translate(685 105)">
<rect width="105" height="130" rx="15"
fill="#000" fill-opacity=".12"
stroke="#ff2020"/>

<text x="52" y="68"
font-size="30"
font-weight="900"
fill="#42d9ff">REACT</text>

<text x="52" y="108"
font-size="13"
fill="#ffffff">React</text>
</g>

<!-- GIT -->

<g transform="translate(810 105)">
<rect width="105" height="130" rx="15"
fill="#000" fill-opacity=".12"
stroke="#ff2020"/>

<text x="52" y="68"
font-size="36"
font-weight="900"
fill="#ff4a31">GIT</text>

<text x="52" y="108"
font-size="13"
fill="#ffffff">Git</text>
</g>

<!-- GITHUB -->

<g transform="translate(935 105)">
<rect width="105" height="130" rx="15"
fill="#000" fill-opacity=".12"
stroke="#ff2020"/>

<text x="52" y="68"
font-size="27"
font-weight="900"
fill="#ffffff">GH</text>

<text x="52" y="108"
font-size="13"
fill="#ffffff">GitHub</text>
</g>

<!-- VSCODE -->

<g transform="translate(1060 105)">
<rect width="105" height="130" rx="15"
fill="#000" fill-opacity=".12"
stroke="#ff2020"/>

<text x="52" y="68"
font-size="31"
font-weight="900"
fill="#29a8ff">VS</text>

<text x="52" y="108"
font-size="13"
fill="#ffffff">VSCode</text>
</g>

</g>

<!-- GLOW EM MOVIMENTO -->

<circle
cx="70"
cy="245"
r="3"
fill="#ff2020"
filter="url(#glow)">

<animate
attributeName="cx"
values="70;1130;70"
dur="7s"
repeatCount="indefinite"/>

</circle>

</svg>
